<?xml version="1.0" encoding="UTF-8" standalone="no"?><svg xmlns="http://www.w3.org/2000/svg" xmlns:xlink="http://www.w3.org/1999/xlink" contentScriptType="application/ecmascript" contentStyleType="text/css" height="686px" preserveAspectRatio="none" style="width:1516px;height:686px;" version="1.1" viewBox="0 0 1516 686" width="1516px" zoomAndPan="magnify"><defs><filter height="300%" id="f1kx6kopze3ywa" width="300%" x="-1" y="-1"><feGaussianBlur result="blurOut" stdDeviation="2.0"/><feColorMatrix in="blurOut" result="blurOut2" type="matrix" values="0 0 0 0 0 0 0 0 0 0 0 0 0 0 0 0 0 0 .4 0"/><feOffset dx="4.0" dy="4.0" in="blurOut2" result="blurOut3"/><feBlend in="SourceGraphic" in2="blurOut3" mode="normal"/></filter></defs><g><!--cluster Malkt--><polygon fill="#FFFFFF" filter="url(#f1kx6kopze3ywa)" points="22,24,63,24,70,44.6919,1494,44.6919,1494,674,22,674,22,24" style="stroke: #000000; stroke-width: 1.5;"/><line style="stroke: #000000; stroke-width: 1.5;" x1="22" x2="70" y1="44.6919" y2="44.6919"/><text fill="#000000" font-family="Ricty Diminished" font-size="14" font-weight="bold" lengthAdjust="spacingAndGlyphs" textLength="35" x="26" y="37.6836">Malkt</text><!--cluster uptime--><polygon fill="#FFFFFF" filter="url(#f1kx6kopze3ywa)" points="434,387,482,387,489,407.6919,576,407.6919,576,507,434,507,434,387" style="stroke: #000000; stroke-width: 1.5;"/><line style="stroke: #000000; stroke-width: 1.5;" x1="434" x2="489" y1="407.6919" y2="407.6919"/><text fill="#000000" font-family="Ricty Diminished" font-size="14" font-weight="bold" lengthAdjust="spacingAndGlyphs" textLength="42" x="438" y="400.6836">uptime</text><!--cluster time--><polygon fill="#FFFFFF" filter="url(#f1kx6kopze3ywa)" points="112,364,146,364,153,384.6919,296,384.6919,296,530,112,530,112,364" style="stroke: #000000; stroke-width: 1.5;"/><line style="stroke: #000000; stroke-width: 1.5;" x1="112" x2="153" y1="384.6919" y2="384.6919"/><text fill="#000000" font-family="Ricty Diminished" font-size="14" font-weight="bold" lengthAdjust="spacingAndGlyphs" textLength="28" x="116" y="377.6836">time</text><!--cluster task--><polygon fill="#FFFFFF" filter="url(#f1kx6kopze3ywa)" points="889,71,923,71,930,91.6919,1470,91.6919,1470,340,889,340,889,71" style="stroke: #000000; stroke-width: 1.5;"/><line style="stroke: #000000; stroke-width: 1.5;" x1="889" x2="930" y1="91.6919" y2="91.6919"/><text fill="#000000" font-family="Ricty Diminished" font-size="14" font-weight="bold" lengthAdjust="spacingAndGlyphs" textLength="28" x="893" y="84.6836">task</text><!--cluster timer--><polygon fill="#FFFFFF" filter="url(#f1kx6kopze3ywa)" points="386,76.5,427,76.5,434,97.1919,865,97.1919,865,340,386,340,386,76.5" style="stroke: #000000; stroke-width: 1.5;"/><line style="stroke: #000000; stroke-width: 1.5;" x1="386" x2="434" y1="97.1919" y2="97.1919"/><text fill="#000000" font-family="Ricty Diminished" font-size="14" font-weight="bold" lengthAdjust="spacingAndGlyphs" textLength="35" x="390" y="90.1836">timer</text><!--cluster inbox--><polygon fill="#FFFFFF" filter="url(#f1kx6kopze3ywa)" points="46,65,87,65,94,85.6919,362,85.6919,362,340,46,340,46,65" style="stroke: #000000; stroke-width: 1.5;"/><line style="stroke: #000000; stroke-width: 1.5;" x1="46" x2="94" y1="85.6919" y2="85.6919"/><text fill="#000000" font-family="Ricty Diminished" font-size="14" font-weight="bold" lengthAdjust="spacingAndGlyphs" textLength="35" x="50" y="78.6836">inbox</text><!--cluster memory_pool--><polygon fill="#FFFFFF" filter="url(#f1kx6kopze3ywa)" points="768,381,851,381,858,401.6919,1018,401.6919,1018,650,768,650,768,381" style="stroke: #000000; stroke-width: 1.5;"/><line style="stroke: #000000; stroke-width: 1.5;" x1="768" x2="858" y1="401.6919" y2="401.6919"/><text fill="#000000" font-family="Ricty Diminished" font-size="14" font-weight="bold" lengthAdjust="spacingAndGlyphs" textLength="77" x="772" y="394.6836">memory_pool</text><!--cluster isr--><polygon fill="#FFFFFF" filter="url(#f1kx6kopze3ywa)" points="1042,381,1069,381,1076,401.6919,1322,401.6919,1322,650,1042,650,1042,381" style="stroke: #000000; stroke-width: 1.5;"/><line style="stroke: #000000; stroke-width: 1.5;" x1="1042" x2="1076" y1="401.6919" y2="401.6919"/><text fill="#000000" font-family="Ricty Diminished" font-size="14" font-weight="bold" lengthAdjust="spacingAndGlyphs" textLength="21" x="1046" y="394.6836">isr</text><!--class Uptime--><rect fill="#F8F8F8" filter="url(#f1kx6kopze3ywa)" height="71.0713" id="Uptime" style="stroke: #383838; stroke-width: 1.5;" width="110" x="450" y="420"/><ellipse cx="483.9" cy="436" fill="#C2C2C2" rx="11" ry="11" style="stroke: #383838; stroke-width: 1.0;"/><path d="M486.6031,441.4375 Q485.6813,442.3594 483.4156,442.3594 Q482.15,442.3594 481.2281,441.4375 Q479.5719,439.7813 479.5719,436.25 Q479.5719,432.1406 481.3531,430.3438 Q482.2906,429.4219 483.4781,429.4219 Q485.7438,429.4219 486.4781,430.1406 Q487.8688,431.5469 487.8063,433.9375 L485.3375,433.9375 Q485.275,431.8125 484.5406,431.0781 Q484.15,430.6719 483.4781,430.6719 Q483.4781,430.6719 483.4156,431.1406 Q482.0875,432.4688 482.0875,436.125 Q482.0875,439.3125 483.2281,440.4375 Q483.7594,440.9688 483.7594,440.9688 Q484.0094,440.9688 484.5406,440.4375 Q485.2125,439.7813 485.275,437.3906 L487.8688,437.3906 Q487.6656,440.375 486.6031,441.4375 Z "/><text fill="#000000" font-family="Ricty Diminished" font-size="12" lengthAdjust="spacingAndGlyphs" textLength="36" x="502.1" y="439.718">Uptime</text><line style="stroke: #383838; stroke-width: 1.5;" x1="451" x2="559" y1="452" y2="452"/><line style="stroke: #383838; stroke-width: 1.5;" x1="451" x2="559" y1="460" y2="460"/><ellipse cx="461" cy="471" fill="#A6A6A6" rx="3" ry="3" style="stroke: #545454; stroke-width: 1.0;"/><text fill="#000000" font-family="Ricty Diminished" font-size="11" lengthAdjust="spacingAndGlyphs" text-decoration="underline" textLength="84" x="470" y="473.1736">Get(): int64_t</text><ellipse cx="461" cy="482.5356" fill="#A6A6A6" rx="3" ry="3" style="stroke: #545454; stroke-width: 1.0;"/><text fill="#000000" font-family="Ricty Diminished" font-size="11" lengthAdjust="spacingAndGlyphs" text-decoration="underline" textLength="72" x="470" y="484.7092">Set(int64_t)</text><!--class TimeUnit--><rect fill="#F8F8F8" filter="url(#f1kx6kopze3ywa)" height="117.2139" id="TimeUnit" style="stroke: #383838; stroke-width: 1.5;" width="152" x="128" y="397"/><ellipse cx="175.75" cy="413" fill="#C2C2C2" rx="11" ry="11" style="stroke: #383838; stroke-width: 1.0;"/><path d="M178.4531,418.4375 Q177.5313,419.3594 175.2656,419.3594 Q174,419.3594 173.0781,418.4375 Q171.4219,416.7813 171.4219,413.25 Q171.4219,409.1406 173.2031,407.3438 Q174.1406,406.4219 175.3281,406.4219 Q177.5938,406.4219 178.3281,407.1406 Q179.7188,408.5469 179.6563,410.9375 L177.1875,410.9375 Q177.125,408.8125 176.3906,408.0781 Q176,407.6719 175.3281,407.6719 Q175.3281,407.6719 175.2656,408.1406 Q173.9375,409.4688 173.9375,413.125 Q173.9375,416.3125 175.0781,417.4375 Q175.6094,417.9688 175.6094,417.9688 Q175.8594,417.9688 176.3906,417.4375 Q177.0625,416.7813 177.125,414.3906 L179.7188,414.3906 Q179.5156,417.375 178.4531,418.4375 Z "/><text fill="#000000" font-family="Ricty Diminished" font-size="12" lengthAdjust="spacingAndGlyphs" textLength="48" x="196.25" y="416.718">TimeUnit</text><line style="stroke: #383838; stroke-width: 1.5;" x1="129" x2="279" y1="429" y2="429"/><ellipse cx="139" cy="440" fill="none" rx="3" ry="3" style="stroke: #545454; stroke-width: 1.0;"/><text fill="#000000" font-family="Ricty Diminished" font-size="11" lengthAdjust="spacingAndGlyphs" text-decoration="underline" textLength="126" x="148" y="442.1736">Millisecond: Duration</text><ellipse cx="139" cy="451.5356" fill="none" rx="3" ry="3" style="stroke: #545454; stroke-width: 1.0;"/><text fill="#000000" font-family="Ricty Diminished" font-size="11" lengthAdjust="spacingAndGlyphs" text-decoration="underline" textLength="96" x="148" y="453.7092">Second: Duration</text><ellipse cx="139" cy="463.0713" fill="none" rx="3" ry="3" style="stroke: #545454; stroke-width: 1.0;"/><text fill="#000000" font-family="Ricty Diminished" font-size="11" lengthAdjust="spacingAndGlyphs" text-decoration="underline" textLength="96" x="148" y="465.2449">Minute: Duration</text><ellipse cx="139" cy="474.6069" fill="none" rx="3" ry="3" style="stroke: #545454; stroke-width: 1.0;"/><text fill="#000000" font-family="Ricty Diminished" font-size="11" lengthAdjust="spacingAndGlyphs" text-decoration="underline" textLength="84" x="148" y="476.7805">Hour: Duration</text><line style="stroke: #383838; stroke-width: 1.5;" x1="129" x2="279" y1="483.1426" y2="483.1426"/><ellipse cx="139" cy="494.1426" fill="#A6A6A6" rx="3" ry="3" style="stroke: #545454; stroke-width: 1.0;"/><text fill="#000000" font-family="Ricty Diminished" font-size="11" lengthAdjust="spacingAndGlyphs" text-decoration="underline" textLength="84" x="148" y="496.3162">Now(): int64_t</text><ellipse cx="139" cy="505.6782" fill="#A6A6A6" rx="3" ry="3" style="stroke: #545454; stroke-width: 1.0;"/><text fill="#000000" font-family="Ricty Diminished" font-size="11" lengthAdjust="spacingAndGlyphs" text-decoration="underline" textLength="90" x="148" y="507.8518">Sleep(Duration)</text><!--class Task--><rect fill="#F8F8F8" filter="url(#f1kx6kopze3ywa)" height="94.1426" id="Task" style="stroke: #383838; stroke-width: 1.5;" width="104" x="1117" y="104"/><ellipse cx="1153.6" cy="120" fill="#B1B1B1" rx="11" ry="11" style="stroke: #383838; stroke-width: 1.0;"/><path d="M1154.5844,124.9063 L1155.3188,124.9063 L1155.3188,126.3594 L1151.3188,126.3594 L1151.3188,124.9063 L1152.0531,124.9063 L1152.0531,114.875 L1151.3188,114.875 L1151.3188,113.4219 L1155.3188,113.4219 L1155.3188,114.875 L1154.5844,114.875 L1154.5844,124.9063 Z "/><text fill="#000000" font-family="Ricty Diminished" font-size="12" font-style="italic" lengthAdjust="spacingAndGlyphs" textLength="24" x="1172.4" y="123.718">Task</text><line style="stroke: #383838; stroke-width: 1.5;" x1="1118" x2="1220" y1="136" y2="136"/><line style="stroke: #383838; stroke-width: 1.5;" x1="1118" x2="1220" y1="144" y2="144"/><ellipse cx="1128" cy="155" fill="#A6A6A6" rx="3" ry="3" style="stroke: #545454; stroke-width: 1.0;"/><text fill="#000000" font-family="Ricty Diminished" font-size="11" lengthAdjust="spacingAndGlyphs" textLength="78" x="1137" y="157.1736">Delete(Task*)</text><ellipse cx="1128" cy="166.5356" fill="#A6A6A6" rx="3" ry="3" style="stroke: #545454; stroke-width: 1.0;"/><text fill="#000000" font-family="Ricty Diminished" font-size="11" lengthAdjust="spacingAndGlyphs" textLength="54" x="1137" y="168.7092">Run(Task)</text><ellipse cx="1128" cy="178.0713" fill="#A6A6A6" rx="3" ry="3" style="stroke: #545454; stroke-width: 1.0;"/><text fill="#000000" font-family="Ricty Diminished" font-size="11" lengthAdjust="spacingAndGlyphs" textLength="78" x="1137" y="180.2449">Suspend(Task)</text><ellipse cx="1128" cy="189.6069" fill="#A6A6A6" rx="3" ry="3" style="stroke: #545454; stroke-width: 1.0;"/><text fill="#000000" font-family="Ricty Diminished" font-size="11" lengthAdjust="spacingAndGlyphs" textLength="72" x="1137" y="191.7805">Resume(Task)</text><!--class SimpleTask--><rect fill="#F8F8F8" filter="url(#f1kx6kopze3ywa)" height="59.5356" id="SimpleTask" style="stroke: #383838; stroke-width: 1.5;" width="236" x="905" y="264"/><ellipse cx="988.75" cy="280" fill="#C2C2C2" rx="11" ry="11" style="stroke: #383838; stroke-width: 1.0;"/><path d="M991.4531,285.4375 Q990.5313,286.3594 988.2656,286.3594 Q987,286.3594 986.0781,285.4375 Q984.4219,283.7813 984.4219,280.25 Q984.4219,276.1406 986.2031,274.3438 Q987.1406,273.4219 988.3281,273.4219 Q990.5938,273.4219 991.3281,274.1406 Q992.7188,275.5469 992.6563,277.9375 L990.1875,277.9375 Q990.125,275.8125 989.3906,275.0781 Q989,274.6719 988.3281,274.6719 Q988.3281,274.6719 988.2656,275.1406 Q986.9375,276.4688 986.9375,280.125 Q986.9375,283.3125 988.0781,284.4375 Q988.6094,284.9688 988.6094,284.9688 Q988.8594,284.9688 989.3906,284.4375 Q990.0625,283.7813 990.125,281.3906 L992.7188,281.3906 Q992.5156,284.375 991.4531,285.4375 Z "/><text fill="#000000" font-family="Ricty Diminished" font-size="12" lengthAdjust="spacingAndGlyphs" textLength="60" x="1009.25" y="283.718">SimpleTask</text><line style="stroke: #383838; stroke-width: 1.5;" x1="906" x2="1140" y1="296" y2="296"/><line style="stroke: #383838; stroke-width: 1.5;" x1="906" x2="1140" y1="304" y2="304"/><ellipse cx="916" cy="315" fill="#A6A6A6" rx="3" ry="3" style="stroke: #545454; stroke-width: 1.0;"/><text fill="#000000" font-family="Ricty Diminished" font-size="11" lengthAdjust="spacingAndGlyphs" textLength="210" x="925" y="317.1736">New(ActionDelegate, int, int): Task</text><!--class ObjectizableTask--><rect fill="#F8F8F8" filter="url(#f1kx6kopze3ywa)" height="59.5356" id="ObjectizableTask" style="stroke: #383838; stroke-width: 1.5;" width="278" x="1176" y="264"/><ellipse cx="1262.75" cy="280" fill="#C2C2C2" rx="11" ry="11" style="stroke: #383838; stroke-width: 1.0;"/><path d="M1265.4531,285.4375 Q1264.5313,286.3594 1262.2656,286.3594 Q1261,286.3594 1260.0781,285.4375 Q1258.4219,283.7813 1258.4219,280.25 Q1258.4219,276.1406 1260.2031,274.3438 Q1261.1406,273.4219 1262.3281,273.4219 Q1264.5938,273.4219 1265.3281,274.1406 Q1266.7188,275.5469 1266.6563,277.9375 L1264.1875,277.9375 Q1264.125,275.8125 1263.3906,275.0781 Q1263,274.6719 1262.3281,274.6719 Q1262.3281,274.6719 1262.2656,275.1406 Q1260.9375,276.4688 1260.9375,280.125 Q1260.9375,283.3125 1262.0781,284.4375 Q1262.6094,284.9688 1262.6094,284.9688 Q1262.8594,284.9688 1263.3906,284.4375 Q1264.0625,283.7813 1264.125,281.3906 L1266.7188,281.3906 Q1266.5156,284.375 1265.4531,285.4375 Z "/><text fill="#000000" font-family="Ricty Diminished" font-size="12" lengthAdjust="spacingAndGlyphs" textLength="96" x="1283.25" y="283.718">ObjectizableTask</text><line style="stroke: #383838; stroke-width: 1.5;" x1="1177" x2="1453" y1="296" y2="296"/><line style="stroke: #383838; stroke-width: 1.5;" x1="1177" x2="1453" y1="304" y2="304"/><ellipse cx="1187" cy="315" fill="#A6A6A6" rx="3" ry="3" style="stroke: #545454; stroke-width: 1.0;"/><text fill="#000000" font-family="Ricty Diminished" font-size="11" lengthAdjust="spacingAndGlyphs" textLength="252" x="1196" y="317.1736">New(ActionDelegate, int, int, void*): Task</text><!--class Timer--><rect fill="#F8F8F8" filter="url(#f1kx6kopze3ywa)" height="82.6069" id="Timer" style="stroke: #383838; stroke-width: 1.5;" width="110" x="570" y="109.5"/><ellipse cx="606.6" cy="125.5" fill="#B1B1B1" rx="11" ry="11" style="stroke: #383838; stroke-width: 1.0;"/><path d="M607.5844,130.4063 L608.3188,130.4063 L608.3188,131.8594 L604.3188,131.8594 L604.3188,130.4063 L605.0531,130.4063 L605.0531,120.375 L604.3188,120.375 L604.3188,118.9219 L608.3188,118.9219 L608.3188,120.375 L607.5844,120.375 L607.5844,130.4063 Z "/><text fill="#000000" font-family="Ricty Diminished" font-size="12" font-style="italic" lengthAdjust="spacingAndGlyphs" textLength="30" x="625.4" y="129.218">Timer</text><line style="stroke: #383838; stroke-width: 1.5;" x1="571" x2="679" y1="141.5" y2="141.5"/><line style="stroke: #383838; stroke-width: 1.5;" x1="571" x2="679" y1="149.5" y2="149.5"/><ellipse cx="581" cy="160.5" fill="#A6A6A6" rx="3" ry="3" style="stroke: #545454; stroke-width: 1.0;"/><text fill="#000000" font-family="Ricty Diminished" font-size="11" lengthAdjust="spacingAndGlyphs" textLength="84" x="590" y="162.6736">Delete(Timer*)</text><ellipse cx="581" cy="172.0356" fill="#A6A6A6" rx="3" ry="3" style="stroke: #545454; stroke-width: 1.0;"/><text fill="#000000" font-family="Ricty Diminished" font-size="11" lengthAdjust="spacingAndGlyphs" textLength="72" x="590" y="174.2092">Pause(Timer)</text><ellipse cx="581" cy="183.5713" fill="#A6A6A6" rx="3" ry="3" style="stroke: #545454; stroke-width: 1.0;"/><text fill="#000000" font-family="Ricty Diminished" font-size="11" lengthAdjust="spacingAndGlyphs" textLength="78" x="590" y="185.7449">Resume(Timer)</text><!--class IntervalTimer--><rect fill="#F8F8F8" filter="url(#f1kx6kopze3ywa)" height="59.5356" id="IntervalTimer" style="stroke: #383838; stroke-width: 1.5;" width="206" x="402" y="264"/><ellipse cx="461.75" cy="280" fill="#C2C2C2" rx="11" ry="11" style="stroke: #383838; stroke-width: 1.0;"/><path d="M464.4531,285.4375 Q463.5313,286.3594 461.2656,286.3594 Q460,286.3594 459.0781,285.4375 Q457.4219,283.7813 457.4219,280.25 Q457.4219,276.1406 459.2031,274.3438 Q460.1406,273.4219 461.3281,273.4219 Q463.5938,273.4219 464.3281,274.1406 Q465.7188,275.5469 465.6563,277.9375 L463.1875,277.9375 Q463.125,275.8125 462.3906,275.0781 Q462,274.6719 461.3281,274.6719 Q461.3281,274.6719 461.2656,275.1406 Q459.9375,276.4688 459.9375,280.125 Q459.9375,283.3125 461.0781,284.4375 Q461.6094,284.9688 461.6094,284.9688 Q461.8594,284.9688 462.3906,284.4375 Q463.0625,283.7813 463.125,281.3906 L465.7188,281.3906 Q465.5156,284.375 464.4531,285.4375 Z "/><text fill="#000000" font-family="Ricty Diminished" font-size="12" lengthAdjust="spacingAndGlyphs" textLength="78" x="482.25" y="283.718">IntervalTimer</text><line style="stroke: #383838; stroke-width: 1.5;" x1="403" x2="607" y1="296" y2="296"/><line style="stroke: #383838; stroke-width: 1.5;" x1="403" x2="607" y1="304" y2="304"/><ellipse cx="413" cy="315" fill="#A6A6A6" rx="3" ry="3" style="stroke: #545454; stroke-width: 1.0;"/><text fill="#000000" font-family="Ricty Diminished" font-size="11" lengthAdjust="spacingAndGlyphs" textLength="180" x="422" y="317.1736">New(TimerDelegate, int): Timer</text><!--class OneShotTimer--><rect fill="#F8F8F8" filter="url(#f1kx6kopze3ywa)" height="59.5356" id="OneShotTimer" style="stroke: #383838; stroke-width: 1.5;" width="206" x="643" y="264"/><ellipse cx="705.75" cy="280" fill="#C2C2C2" rx="11" ry="11" style="stroke: #383838; stroke-width: 1.0;"/><path d="M708.4531,285.4375 Q707.5313,286.3594 705.2656,286.3594 Q704,286.3594 703.0781,285.4375 Q701.4219,283.7813 701.4219,280.25 Q701.4219,276.1406 703.2031,274.3438 Q704.1406,273.4219 705.3281,273.4219 Q707.5938,273.4219 708.3281,274.1406 Q709.7188,275.5469 709.6563,277.9375 L707.1875,277.9375 Q707.125,275.8125 706.3906,275.0781 Q706,274.6719 705.3281,274.6719 Q705.3281,274.6719 705.2656,275.1406 Q703.9375,276.4688 703.9375,280.125 Q703.9375,283.3125 705.0781,284.4375 Q705.6094,284.9688 705.6094,284.9688 Q705.8594,284.9688 706.3906,284.4375 Q707.0625,283.7813 707.125,281.3906 L709.7188,281.3906 Q709.5156,284.375 708.4531,285.4375 Z "/><text fill="#000000" font-family="Ricty Diminished" font-size="12" lengthAdjust="spacingAndGlyphs" textLength="72" x="726.25" y="283.718">OneShotTimer</text><line style="stroke: #383838; stroke-width: 1.5;" x1="644" x2="848" y1="296" y2="296"/><line style="stroke: #383838; stroke-width: 1.5;" x1="644" x2="848" y1="304" y2="304"/><ellipse cx="654" cy="315" fill="#A6A6A6" rx="3" ry="3" style="stroke: #545454; stroke-width: 1.0;"/><text fill="#000000" font-family="Ricty Diminished" font-size="11" lengthAdjust="spacingAndGlyphs" textLength="180" x="663" y="317.1736">New(TimerDelegate, int): Timer</text><!--class Inbox--><rect fill="#F8F8F8" filter="url(#f1kx6kopze3ywa)" height="105.6782" id="Inbox" style="stroke: #383838; stroke-width: 1.5;" width="284" x="62" y="98"/><ellipse cx="184.75" cy="114" fill="#B1B1B1" rx="11" ry="11" style="stroke: #383838; stroke-width: 1.0;"/><path d="M185.7344,118.9063 L186.4688,118.9063 L186.4688,120.3594 L182.4688,120.3594 L182.4688,118.9063 L183.2031,118.9063 L183.2031,108.875 L182.4688,108.875 L182.4688,107.4219 L186.4688,107.4219 L186.4688,108.875 L185.7344,108.875 L185.7344,118.9063 Z "/><text fill="#000000" font-family="Ricty Diminished" font-size="12" font-style="italic" lengthAdjust="spacingAndGlyphs" textLength="30" x="205.25" y="117.718">Inbox</text><line style="stroke: #383838; stroke-width: 1.5;" x1="63" x2="345" y1="130" y2="130"/><line style="stroke: #383838; stroke-width: 1.5;" x1="63" x2="345" y1="138" y2="138"/><ellipse cx="73" cy="149" fill="#A6A6A6" rx="3" ry="3" style="stroke: #545454; stroke-width: 1.0;"/><text fill="#000000" font-family="Ricty Diminished" font-size="11" lengthAdjust="spacingAndGlyphs" textLength="84" x="82" y="151.1736">Delete(Inbox*)</text><ellipse cx="73" cy="160.5356" fill="#A6A6A6" rx="3" ry="3" style="stroke: #545454; stroke-width: 1.0;"/><text fill="#000000" font-family="Ricty Diminished" font-size="11" lengthAdjust="spacingAndGlyphs" textLength="210" x="82" y="162.7092">Post(Inbox, const void*, int): bool</text><ellipse cx="73" cy="172.0713" fill="#A6A6A6" rx="3" ry="3" style="stroke: #545454; stroke-width: 1.0;"/><text fill="#000000" font-family="Ricty Diminished" font-size="11" lengthAdjust="spacingAndGlyphs" textLength="258" x="82" y="174.2449">BlockingPost(Inbox, const void*, int): bool</text><ellipse cx="73" cy="183.6069" fill="#A6A6A6" rx="3" ry="3" style="stroke: #545454; stroke-width: 1.0;"/><text fill="#000000" font-family="Ricty Diminished" font-size="11" lengthAdjust="spacingAndGlyphs" textLength="102" x="82" y="185.7805">Get(Inbox): void*</text><ellipse cx="73" cy="195.1426" fill="#A6A6A6" rx="3" ry="3" style="stroke: #545454; stroke-width: 1.0;"/><text fill="#000000" font-family="Ricty Diminished" font-size="11" lengthAdjust="spacingAndGlyphs" textLength="150" x="82" y="197.3162">BlockingGet(Inbox): void*</text><!--class SimpleInbox--><rect fill="#F8F8F8" filter="url(#f1kx6kopze3ywa)" height="59.5356" id="SimpleInbox" style="stroke: #383838; stroke-width: 1.5;" width="116" x="146" y="264"/><ellipse cx="169.1" cy="280" fill="#C2C2C2" rx="11" ry="11" style="stroke: #383838; stroke-width: 1.0;"/><path d="M171.8031,285.4375 Q170.8813,286.3594 168.6156,286.3594 Q167.35,286.3594 166.4281,285.4375 Q164.7719,283.7813 164.7719,280.25 Q164.7719,276.1406 166.5531,274.3438 Q167.4906,273.4219 168.6781,273.4219 Q170.9438,273.4219 171.6781,274.1406 Q173.0688,275.5469 173.0063,277.9375 L170.5375,277.9375 Q170.475,275.8125 169.7406,275.0781 Q169.35,274.6719 168.6781,274.6719 Q168.6781,274.6719 168.6156,275.1406 Q167.2875,276.4688 167.2875,280.125 Q167.2875,283.3125 168.4281,284.4375 Q168.9594,284.9688 168.9594,284.9688 Q169.2094,284.9688 169.7406,284.4375 Q170.4125,283.7813 170.475,281.3906 L173.0688,281.3906 Q172.8656,284.375 171.8031,285.4375 Z "/><text fill="#000000" font-family="Ricty Diminished" font-size="12" lengthAdjust="spacingAndGlyphs" textLength="66" x="184.9" y="283.718">SimpleInbox</text><line style="stroke: #383838; stroke-width: 1.5;" x1="147" x2="261" y1="296" y2="296"/><line style="stroke: #383838; stroke-width: 1.5;" x1="147" x2="261" y1="304" y2="304"/><ellipse cx="157" cy="315" fill="#A6A6A6" rx="3" ry="3" style="stroke: #545454; stroke-width: 1.0;"/><text fill="#000000" font-family="Ricty Diminished" font-size="11" lengthAdjust="spacingAndGlyphs" textLength="90" x="166" y="317.1736">New(int): Inbox</text><!--class MemoryPool--><rect fill="#F8F8F8" filter="url(#f1kx6kopze3ywa)" height="82.6069" id="MemoryPool" style="stroke: #383838; stroke-width: 1.5;" width="182" x="811" y="414"/><ellipse cx="867.75" cy="430" fill="#B1B1B1" rx="11" ry="11" style="stroke: #383838; stroke-width: 1.0;"/><path d="M868.7344,434.9063 L869.4688,434.9063 L869.4688,436.3594 L865.4688,436.3594 L865.4688,434.9063 L866.2031,434.9063 L866.2031,424.875 L865.4688,424.875 L865.4688,423.4219 L869.4688,423.4219 L869.4688,424.875 L868.7344,424.875 L868.7344,434.9063 Z "/><text fill="#000000" font-family="Ricty Diminished" font-size="12" font-style="italic" lengthAdjust="spacingAndGlyphs" textLength="60" x="888.25" y="433.718">MemoryPool</text><line style="stroke: #383838; stroke-width: 1.5;" x1="812" x2="992" y1="446" y2="446"/><line style="stroke: #383838; stroke-width: 1.5;" x1="812" x2="992" y1="454" y2="454"/><ellipse cx="822" cy="465" fill="#A6A6A6" rx="3" ry="3" style="stroke: #545454; stroke-width: 1.0;"/><text fill="#000000" font-family="Ricty Diminished" font-size="11" lengthAdjust="spacingAndGlyphs" textLength="114" x="831" y="467.1736">Delete(MemoryPool*)</text><ellipse cx="822" cy="476.5356" fill="#A6A6A6" rx="3" ry="3" style="stroke: #545454; stroke-width: 1.0;"/><text fill="#000000" font-family="Ricty Diminished" font-size="11" lengthAdjust="spacingAndGlyphs" textLength="132" x="831" y="478.7092">Get(MemoryPool): void*</text><ellipse cx="822" cy="488.0713" fill="#A6A6A6" rx="3" ry="3" style="stroke: #545454; stroke-width: 1.0;"/><text fill="#000000" font-family="Ricty Diminished" font-size="11" lengthAdjust="spacingAndGlyphs" textLength="156" x="831" y="490.2449">Release(MemoryPool, void*)</text><!--class BasicMemoryPool--><rect fill="#F8F8F8" filter="url(#f1kx6kopze3ywa)" height="59.5356" id="BasicMemoryPool" style="stroke: #383838; stroke-width: 1.5;" width="218" x="784" y="574"/><ellipse cx="843.75" cy="590" fill="#C2C2C2" rx="11" ry="11" style="stroke: #383838; stroke-width: 1.0;"/><path d="M846.4531,595.4375 Q845.5313,596.3594 843.2656,596.3594 Q842,596.3594 841.0781,595.4375 Q839.4219,593.7813 839.4219,590.25 Q839.4219,586.1406 841.2031,584.3438 Q842.1406,583.4219 843.3281,583.4219 Q845.5938,583.4219 846.3281,584.1406 Q847.7188,585.5469 847.6563,587.9375 L845.1875,587.9375 Q845.125,585.8125 844.3906,585.0781 Q844,584.6719 843.3281,584.6719 Q843.3281,584.6719 843.2656,585.1406 Q841.9375,586.4688 841.9375,590.125 Q841.9375,593.3125 843.0781,594.4375 Q843.6094,594.9688 843.6094,594.9688 Q843.8594,594.9688 844.3906,594.4375 Q845.0625,593.7813 845.125,591.3906 L847.7188,591.3906 Q847.5156,594.375 846.4531,595.4375 Z "/><text fill="#000000" font-family="Ricty Diminished" font-size="12" lengthAdjust="spacingAndGlyphs" textLength="90" x="864.25" y="593.718">BasicMemoryPool</text><line style="stroke: #383838; stroke-width: 1.5;" x1="785" x2="1001" y1="606" y2="606"/><line style="stroke: #383838; stroke-width: 1.5;" x1="785" x2="1001" y1="614" y2="614"/><ellipse cx="795" cy="625" fill="#A6A6A6" rx="3" ry="3" style="stroke: #545454; stroke-width: 1.0;"/><text fill="#000000" font-family="Ricty Diminished" font-size="11" lengthAdjust="spacingAndGlyphs" textLength="192" x="804" y="627.1736">New(void*, int, int): MemoryPool</text><!--class Isr--><rect fill="#F8F8F8" filter="url(#f1kx6kopze3ywa)" height="82.6069" id="Isr" style="stroke: #383838; stroke-width: 1.5;" width="98" x="1095" y="414"/><ellipse cx="1131.6" cy="430" fill="#B1B1B1" rx="11" ry="11" style="stroke: #383838; stroke-width: 1.0;"/><path d="M1132.5844,434.9063 L1133.3188,434.9063 L1133.3188,436.3594 L1129.3188,436.3594 L1129.3188,434.9063 L1130.0531,434.9063 L1130.0531,424.875 L1129.3188,424.875 L1129.3188,423.4219 L1133.3188,423.4219 L1133.3188,424.875 L1132.5844,424.875 L1132.5844,434.9063 Z "/><text fill="#000000" font-family="Ricty Diminished" font-size="12" font-style="italic" lengthAdjust="spacingAndGlyphs" textLength="18" x="1150.4" y="433.718">Isr</text><line style="stroke: #383838; stroke-width: 1.5;" x1="1096" x2="1192" y1="446" y2="446"/><line style="stroke: #383838; stroke-width: 1.5;" x1="1096" x2="1192" y1="454" y2="454"/><ellipse cx="1106" cy="465" fill="#A6A6A6" rx="3" ry="3" style="stroke: #545454; stroke-width: 1.0;"/><text fill="#000000" font-family="Ricty Diminished" font-size="11" lengthAdjust="spacingAndGlyphs" textLength="72" x="1115" y="467.1736">Delete(Isr*)</text><ellipse cx="1106" cy="476.5356" fill="#A6A6A6" rx="3" ry="3" style="stroke: #545454; stroke-width: 1.0;"/><text fill="#000000" font-family="Ricty Diminished" font-size="11" lengthAdjust="spacingAndGlyphs" textLength="66" x="1115" y="478.7092">Enable(Isr)</text><ellipse cx="1106" cy="488.0713" fill="#A6A6A6" rx="3" ry="3" style="stroke: #545454; stroke-width: 1.0;"/><text fill="#000000" font-family="Ricty Diminished" font-size="11" lengthAdjust="spacingAndGlyphs" textLength="72" x="1115" y="490.2449">Disable(Isr)</text><!--class BasicIsr--><rect fill="#F8F8F8" filter="url(#f1kx6kopze3ywa)" height="59.5356" id="BasicIsr" style="stroke: #383838; stroke-width: 1.5;" width="248" x="1058" y="574"/><ellipse cx="1153.75" cy="590" fill="#C2C2C2" rx="11" ry="11" style="stroke: #383838; stroke-width: 1.0;"/><path d="M1156.4531,595.4375 Q1155.5313,596.3594 1153.2656,596.3594 Q1152,596.3594 1151.0781,595.4375 Q1149.4219,593.7813 1149.4219,590.25 Q1149.4219,586.1406 1151.2031,584.3438 Q1152.1406,583.4219 1153.3281,583.4219 Q1155.5938,583.4219 1156.3281,584.1406 Q1157.7188,585.5469 1157.6563,587.9375 L1155.1875,587.9375 Q1155.125,585.8125 1154.3906,585.0781 Q1154,584.6719 1153.3281,584.6719 Q1153.3281,584.6719 1153.2656,585.1406 Q1151.9375,586.4688 1151.9375,590.125 Q1151.9375,593.3125 1153.0781,594.4375 Q1153.6094,594.9688 1153.6094,594.9688 Q1153.8594,594.9688 1154.3906,594.4375 Q1155.0625,593.7813 1155.125,591.3906 L1157.7188,591.3906 Q1157.5156,594.375 1156.4531,595.4375 Z "/><text fill="#000000" font-family="Ricty Diminished" font-size="12" lengthAdjust="spacingAndGlyphs" textLength="48" x="1174.25" y="593.718">BasicIsr</text><line style="stroke: #383838; stroke-width: 1.5;" x1="1059" x2="1305" y1="606" y2="606"/><line style="stroke: #383838; stroke-width: 1.5;" x1="1059" x2="1305" y1="614" y2="614"/><ellipse cx="1069" cy="625" fill="#A6A6A6" rx="3" ry="3" style="stroke: #545454; stroke-width: 1.0;"/><text fill="#000000" font-family="Ricty Diminished" font-size="11" lengthAdjust="spacingAndGlyphs" textLength="222" x="1078" y="627.1736">New(int, int, InterruptDelegate): Isr</text><!--reverse link Task to SimpleTask--><path d="M1106.71,212.161 C1088.28,229.959 1068.92,248.657 1053.46,263.581 " fill="none" id="Task&lt;-SimpleTask" style="stroke: #383838; stroke-width: 1.0;"/><polygon fill="none" points="1101.94,207.027,1121.19,198.169,1111.67,217.098,1101.94,207.027" style="stroke: #383838; stroke-width: 1.0;"/><!--reverse link Task to ObjectizableTask--><path d="M1231.29,212.161 C1249.72,229.959 1269.08,248.657 1284.54,263.581 " fill="none" id="Task&lt;-ObjectizableTask" style="stroke: #383838; stroke-width: 1.0;"/><polygon fill="none" points="1226.33,217.098,1216.81,198.169,1236.06,207.027,1226.33,217.098" style="stroke: #383838; stroke-width: 1.0;"/><!--reverse link Timer to IntervalTimer--><path d="M577.306,208.04 C561.016,227.181 543.461,247.809 529.728,263.945 " fill="none" id="Timer&lt;-IntervalTimer" style="stroke: #383838; stroke-width: 1.0;"/><polygon fill="none" points="571.998,203.477,590.291,192.783,582.659,212.551,571.998,203.477" style="stroke: #383838; stroke-width: 1.0;"/><!--reverse link Timer to OneShotTimer--><path d="M673.091,208.04 C689.517,227.181 707.219,247.809 721.066,263.945 " fill="none" id="Timer&lt;-OneShotTimer" style="stroke: #383838; stroke-width: 1.0;"/><polygon fill="none" points="667.711,212.519,659.998,192.783,678.335,203.402,667.711,212.519" style="stroke: #383838; stroke-width: 1.0;"/><!--reverse link Inbox to SimpleInbox--><path d="M204,224.31 C204,238.23 204,252.055 204,263.613 " fill="none" id="Inbox&lt;-SimpleInbox" style="stroke: #383838; stroke-width: 1.0;"/><polygon fill="none" points="197,224.103,204,204.103,211,224.103,197,224.103" style="stroke: #383838; stroke-width: 1.0;"/><!--reverse link MemoryPool to BasicMemoryPool--><path d="M898.266,517.284 C897.071,536.734 895.802,557.393 894.809,573.555 " fill="none" id="MemoryPool&lt;-BasicMemoryPool" style="stroke: #383838; stroke-width: 1.0;"/><polygon fill="none" points="891.28,516.842,899.493,497.308,905.253,517.7,891.28,516.842" style="stroke: #383838; stroke-width: 1.0;"/><!--reverse link Isr to BasicIsr--><path d="M1159.69,516.975 C1164.75,536.516 1170.15,557.307 1174.36,573.555 " fill="none" id="Isr&lt;-BasicIsr" style="stroke: #383838; stroke-width: 1.0;"/><polygon fill="none" points="1152.83,518.425,1154.59,497.308,1166.38,514.91,1152.83,518.425" style="stroke: #383838; stroke-width: 1.0;"/><!--reverse link IntervalTimer to Uptime--><!--reverse link SimpleInbox to TimeUnit--><!--reverse link SimpleTask to Isr--><!--reverse link SimpleTask to MemoryPool--><!--
@startuml class_diagram
skinparam {
    defaultFontName Ricty Diminished
    monochrome true
}

package Malkt {
    folder uptime {
        class Uptime {
            + {static} Get(): int64_t
            + {static} Set(int64_t)
        }
    }

    folder time {
        class TimeUnit {
            + {static} Millisecond: Duration
            + {static} Second: Duration
            + {static} Minute: Duration
            + {static} Hour: Duration
            + {static} Now(): int64_t
            + {static} Sleep(Duration)
        }
    }

    folder task {
        interface Task {
            + Delete(Task*)
            + Run(Task)
            + Suspend(Task)
            + Resume(Task)
        }

        class SimpleTask {
            + New(ActionDelegate, int, int): Task
        }

        class ObjectizableTask {
            + New(ActionDelegate, int, int, void*): Task
        }

        Task <|- - SimpleTask
        Task <|- - ObjectizableTask
    }

    folder timer {
        interface Timer {
            + Delete(Timer*)
            + Pause(Timer)
            + Resume(Timer)
        }

        class IntervalTimer {
            + New(TimerDelegate, int): Timer
        }

        class OneShotTimer {
            + New(TimerDelegate, int): Timer
        }

        Timer <|- - IntervalTimer
        Timer <|- - OneShotTimer
    }

    folder inbox {
        interface Inbox {
            + Delete(Inbox*)
            + Post(Inbox, const void*, int): bool
            + BlockingPost(Inbox, const void*, int): bool
            + Get(Inbox): void*
            + BlockingGet(Inbox): void*
        }

        class SimpleInbox {
            + New(int): Inbox
        }

        Inbox <|- - SimpleInbox
    }

    folder memory_pool {
        interface MemoryPool {
            + Delete(MemoryPool*)
            + Get(MemoryPool): void*
            + Release(MemoryPool, void*)
        }

        class BasicMemoryPool {
            + New(void*, int, int): MemoryPool
        }

        MemoryPool <|- - BasicMemoryPool
    }

    folder isr {
        interface Isr {
            + Delete(Isr*)
            + Enable(Isr)
            + Disable(Isr)
        }

        class BasicIsr {
            + New(int, int, InterruptDelegate): Isr
        }

        Isr <|- - BasicIsr
    }

    Uptime -[hidden]u-> IntervalTimer
    TimeUnit -[hidden]u-> SimpleInbox
    Isr -[hidden]u-> SimpleTask
    MemoryPool -[hidden]u-> SimpleTask
}

@enduml

PlantUML version 1.2019.09(Tue Aug 27 01:19:51 JST 2019)
(GPL source distribution)
Java Runtime: Java(TM) SE Runtime Environment
JVM: Java HotSpot(TM) 64-Bit Server VM
Java Version: 1.8.0_221-b11
Operating System: Windows 10
OS Version: 10.0
Default Encoding: MS932
Language: en
Country: GB
--></g></svg>