<?xml version="1.0" encoding="UTF-8" standalone="no"?><svg xmlns="http://www.w3.org/2000/svg" xmlns:xlink="http://www.w3.org/1999/xlink" contentScriptType="application/ecmascript" contentStyleType="text/css" height="596px" preserveAspectRatio="none" style="width:1923px;height:596px;" version="1.1" viewBox="0 0 1923 596" width="1923px" zoomAndPan="magnify"><defs><filter height="300%" id="f122c0qkp3hfhw" width="300%" x="-1" y="-1"><feGaussianBlur result="blurOut" stdDeviation="2.0"/><feColorMatrix in="blurOut" result="blurOut2" type="matrix" values="0 0 0 0 0 0 0 0 0 0 0 0 0 0 0 0 0 0 .4 0"/><feOffset dx="4.0" dy="4.0" in="blurOut2" result="blurOut3"/><feBlend in="SourceGraphic" in2="blurOut3" mode="normal"/></filter></defs><g><!--cluster Bleu--><polygon fill="#FFFFFF" filter="url(#f122c0qkp3hfhw)" points="654,24,688,24,695,44.6919,850,44.6919,850,209,654,209,654,24" style="stroke: #000000; stroke-width: 1.5;"/><line style="stroke: #000000; stroke-width: 1.5;" x1="654" x2="695" y1="44.6919" y2="44.6919"/><text fill="#000000" font-family="Ricty Diminished" font-size="14" font-weight="bold" lengthAdjust="spacingAndGlyphs" textLength="28" x="658" y="37.6836">Bleu</text><!--cluster heap--><polygon fill="#FFFFFF" filter="url(#f122c0qkp3hfhw)" points="678,65,712,65,719,85.6919,826,85.6919,826,185,678,185,678,65" style="stroke: #000000; stroke-width: 1.5;"/><line style="stroke: #000000; stroke-width: 1.5;" x1="678" x2="719" y1="85.6919" y2="85.6919"/><text fill="#000000" font-family="Ricty Diminished" font-size="14" font-weight="bold" lengthAdjust="spacingAndGlyphs" textLength="28" x="682" y="78.6836">heap</text><!--cluster Malkt--><polygon fill="#FFFFFF" filter="url(#f122c0qkp3hfhw)" points="22,233,63,233,70,253.6919,1901,253.6919,1901,584,22,584,22,233" style="stroke: #000000; stroke-width: 1.5;"/><line style="stroke: #000000; stroke-width: 1.5;" x1="22" x2="70" y1="253.6919" y2="253.6919"/><text fill="#000000" font-family="Ricty Diminished" font-size="14" font-weight="bold" lengthAdjust="spacingAndGlyphs" textLength="35" x="26" y="246.6836">Malkt</text><!--cluster uptime--><polygon fill="#FFFFFF" filter="url(#f122c0qkp3hfhw)" points="1729,302.5,1777,302.5,1784,323.1919,1877,323.1919,1877,411.5,1729,411.5,1729,302.5" style="stroke: #000000; stroke-width: 1.5;"/><line style="stroke: #000000; stroke-width: 1.5;" x1="1729" x2="1784" y1="323.1919" y2="323.1919"/><text fill="#000000" font-family="Ricty Diminished" font-size="14" font-weight="bold" lengthAdjust="spacingAndGlyphs" textLength="42" x="1733" y="316.1836">uptime</text><!--cluster task--><polygon fill="#FFFFFF" filter="url(#f122c0qkp3hfhw)" points="1437,274,1471,274,1478,294.6919,1705,294.6919,1705,440,1437,440,1437,274" style="stroke: #000000; stroke-width: 1.5;"/><line style="stroke: #000000; stroke-width: 1.5;" x1="1437" x2="1478" y1="294.6919" y2="294.6919"/><text fill="#000000" font-family="Ricty Diminished" font-size="14" font-weight="bold" lengthAdjust="spacingAndGlyphs" textLength="28" x="1441" y="287.6836">task</text><!--cluster timer--><polygon fill="#FFFFFF" filter="url(#f122c0qkp3hfhw)" points="934,285.5,975,285.5,982,306.1919,1413,306.1919,1413,560,934,560,934,285.5" style="stroke: #000000; stroke-width: 1.5;"/><line style="stroke: #000000; stroke-width: 1.5;" x1="934" x2="982" y1="306.1919" y2="306.1919"/><text fill="#000000" font-family="Ricty Diminished" font-size="14" font-weight="bold" lengthAdjust="spacingAndGlyphs" textLength="35" x="938" y="299.1836">timer</text><!--cluster inbox--><polygon fill="#FFFFFF" filter="url(#f122c0qkp3hfhw)" points="594,274,635,274,642,294.6919,910,294.6919,910,440,594,440,594,274" style="stroke: #000000; stroke-width: 1.5;"/><line style="stroke: #000000; stroke-width: 1.5;" x1="594" x2="642" y1="294.6919" y2="294.6919"/><text fill="#000000" font-family="Ricty Diminished" font-size="14" font-weight="bold" lengthAdjust="spacingAndGlyphs" textLength="35" x="598" y="287.6836">inbox</text><!--cluster memory_pool--><polygon fill="#FFFFFF" filter="url(#f122c0qkp3hfhw)" points="320,285.5,403,285.5,410,306.1919,570,306.1919,570,428.5,320,428.5,320,285.5" style="stroke: #000000; stroke-width: 1.5;"/><line style="stroke: #000000; stroke-width: 1.5;" x1="320" x2="410" y1="306.1919" y2="306.1919"/><text fill="#000000" font-family="Ricty Diminished" font-size="14" font-weight="bold" lengthAdjust="spacingAndGlyphs" textLength="77" x="324" y="299.1836">memory_pool</text><!--cluster isr--><polygon fill="#FFFFFF" filter="url(#f122c0qkp3hfhw)" points="46,285.5,73,285.5,80,306.1919,296,306.1919,296,428.5,46,428.5,46,285.5" style="stroke: #000000; stroke-width: 1.5;"/><line style="stroke: #000000; stroke-width: 1.5;" x1="46" x2="80" y1="306.1919" y2="306.1919"/><text fill="#000000" font-family="Ricty Diminished" font-size="14" font-weight="bold" lengthAdjust="spacingAndGlyphs" textLength="21" x="50" y="299.1836">isr</text><!--class Heap--><rect fill="#F8F8F8" filter="url(#f122c0qkp3hfhw)" height="71.0713" id="Heap" style="stroke: #383838; stroke-width: 1.5;" width="116" x="694" y="98"/><ellipse cx="736" cy="114" fill="#C2C2C2" rx="11" ry="11" style="stroke: #383838; stroke-width: 1.0;"/><path d="M738.7031,119.4375 Q737.7813,120.3594 735.5156,120.3594 Q734.25,120.3594 733.3281,119.4375 Q731.6719,117.7813 731.6719,114.25 Q731.6719,110.1406 733.4531,108.3438 Q734.3906,107.4219 735.5781,107.4219 Q737.8438,107.4219 738.5781,108.1406 Q739.9688,109.5469 739.9063,111.9375 L737.4375,111.9375 Q737.375,109.8125 736.6406,109.0781 Q736.25,108.6719 735.5781,108.6719 Q735.5781,108.6719 735.5156,109.1406 Q734.1875,110.4688 734.1875,114.125 Q734.1875,117.3125 735.3281,118.4375 Q735.8594,118.9688 735.8594,118.9688 Q736.1094,118.9688 736.6406,118.4375 Q737.3125,117.7813 737.375,115.3906 L739.9688,115.3906 Q739.7656,118.375 738.7031,119.4375 Z "/><text fill="#000000" font-family="Ricty Diminished" font-size="12" lengthAdjust="spacingAndGlyphs" textLength="24" x="756" y="117.718">Heap</text><line style="stroke: #383838; stroke-width: 1.5;" x1="695" x2="809" y1="130" y2="130"/><line style="stroke: #383838; stroke-width: 1.5;" x1="695" x2="809" y1="138" y2="138"/><ellipse cx="705" cy="149" fill="#A6A6A6" rx="3" ry="3" style="stroke: #545454; stroke-width: 1.0;"/><text fill="#000000" font-family="Ricty Diminished" font-size="11" lengthAdjust="spacingAndGlyphs" text-decoration="underline" textLength="90" x="714" y="151.1736">New(int): void*</text><ellipse cx="705" cy="160.5356" fill="#A6A6A6" rx="3" ry="3" style="stroke: #545454; stroke-width: 1.0;"/><text fill="#000000" font-family="Ricty Diminished" font-size="11" lengthAdjust="spacingAndGlyphs" text-decoration="underline" textLength="84" x="714" y="162.7092">Delete(void**)</text><!--class Uptime--><rect fill="#F8F8F8" filter="url(#f122c0qkp3hfhw)" height="59.5356" id="Uptime" style="stroke: #383838; stroke-width: 1.5;" width="116" x="1745" y="335.5"/><ellipse cx="1781.6" cy="351.5" fill="#C2C2C2" rx="11" ry="11" style="stroke: #383838; stroke-width: 1.0;"/><path d="M1784.3031,356.9375 Q1783.3813,357.8594 1781.1156,357.8594 Q1779.85,357.8594 1778.9281,356.9375 Q1777.2719,355.2813 1777.2719,351.75 Q1777.2719,347.6406 1779.0531,345.8438 Q1779.9906,344.9219 1781.1781,344.9219 Q1783.4438,344.9219 1784.1781,345.6406 Q1785.5688,347.0469 1785.5063,349.4375 L1783.0375,349.4375 Q1782.975,347.3125 1782.2406,346.5781 Q1781.85,346.1719 1781.1781,346.1719 Q1781.1781,346.1719 1781.1156,346.6406 Q1779.7875,347.9688 1779.7875,351.625 Q1779.7875,354.8125 1780.9281,355.9375 Q1781.4594,356.4688 1781.4594,356.4688 Q1781.7094,356.4688 1782.2406,355.9375 Q1782.9125,355.2813 1782.975,352.8906 L1785.5688,352.8906 Q1785.3656,355.875 1784.3031,356.9375 Z "/><text fill="#000000" font-family="Ricty Diminished" font-size="12" lengthAdjust="spacingAndGlyphs" textLength="36" x="1800.4" y="355.218">Uptime</text><line style="stroke: #383838; stroke-width: 1.5;" x1="1746" x2="1860" y1="367.5" y2="367.5"/><line style="stroke: #383838; stroke-width: 1.5;" x1="1746" x2="1860" y1="375.5" y2="375.5"/><ellipse cx="1756" cy="386.5" fill="#A6A6A6" rx="3" ry="3" style="stroke: #545454; stroke-width: 1.0;"/><text fill="#000000" font-family="Ricty Diminished" font-size="11" lengthAdjust="spacingAndGlyphs" textLength="90" x="1765" y="388.6736">Get(): uint64_t</text><!--class Task--><rect fill="#F8F8F8" filter="url(#f122c0qkp3hfhw)" height="117.2139" id="Task" style="stroke: #383838; stroke-width: 1.5;" width="236" x="1453" y="307"/><ellipse cx="1554.75" cy="323" fill="#C2C2C2" rx="11" ry="11" style="stroke: #383838; stroke-width: 1.0;"/><path d="M1557.4531,328.4375 Q1556.5313,329.3594 1554.2656,329.3594 Q1553,329.3594 1552.0781,328.4375 Q1550.4219,326.7813 1550.4219,323.25 Q1550.4219,319.1406 1552.2031,317.3438 Q1553.1406,316.4219 1554.3281,316.4219 Q1556.5938,316.4219 1557.3281,317.1406 Q1558.7188,318.5469 1558.6563,320.9375 L1556.1875,320.9375 Q1556.125,318.8125 1555.3906,318.0781 Q1555,317.6719 1554.3281,317.6719 Q1554.3281,317.6719 1554.2656,318.1406 Q1552.9375,319.4688 1552.9375,323.125 Q1552.9375,326.3125 1554.0781,327.4375 Q1554.6094,327.9688 1554.6094,327.9688 Q1554.8594,327.9688 1555.3906,327.4375 Q1556.0625,326.7813 1556.125,324.3906 L1558.7188,324.3906 Q1558.5156,327.375 1557.4531,328.4375 Z "/><text fill="#000000" font-family="Ricty Diminished" font-size="12" lengthAdjust="spacingAndGlyphs" textLength="24" x="1575.25" y="326.718">Task</text><line style="stroke: #383838; stroke-width: 1.5;" x1="1454" x2="1688" y1="339" y2="339"/><line style="stroke: #383838; stroke-width: 1.5;" x1="1454" x2="1688" y1="347" y2="347"/><ellipse cx="1464" cy="358" fill="#A6A6A6" rx="3" ry="3" style="stroke: #545454; stroke-width: 1.0;"/><text fill="#000000" font-family="Ricty Diminished" font-size="11" lengthAdjust="spacingAndGlyphs" textLength="210" x="1473" y="360.1736">New(ActionDelegate, int, int): Task</text><ellipse cx="1464" cy="369.5356" fill="#A6A6A6" rx="3" ry="3" style="stroke: #545454; stroke-width: 1.0;"/><text fill="#000000" font-family="Ricty Diminished" font-size="11" lengthAdjust="spacingAndGlyphs" textLength="78" x="1473" y="371.7092">Delete(Task*)</text><ellipse cx="1464" cy="381.0713" fill="#A6A6A6" rx="3" ry="3" style="stroke: #545454; stroke-width: 1.0;"/><text fill="#000000" font-family="Ricty Diminished" font-size="11" lengthAdjust="spacingAndGlyphs" textLength="54" x="1473" y="383.2449">Run(Task)</text><ellipse cx="1464" cy="392.6069" fill="#A6A6A6" rx="3" ry="3" style="stroke: #545454; stroke-width: 1.0;"/><text fill="#000000" font-family="Ricty Diminished" font-size="11" lengthAdjust="spacingAndGlyphs" textLength="78" x="1473" y="394.7805">Suspend(Task)</text><ellipse cx="1464" cy="404.1426" fill="#A6A6A6" rx="3" ry="3" style="stroke: #545454; stroke-width: 1.0;"/><text fill="#000000" font-family="Ricty Diminished" font-size="11" lengthAdjust="spacingAndGlyphs" textLength="72" x="1473" y="406.3162">Resume(Task)</text><ellipse cx="1464" cy="415.6782" fill="#A6A6A6" rx="3" ry="3" style="stroke: #545454; stroke-width: 1.0;"/><text fill="#000000" font-family="Ricty Diminished" font-size="11" lengthAdjust="spacingAndGlyphs" textLength="60" x="1473" y="417.8518">Delay(int)</text><!--class Timer--><rect fill="#F8F8F8" filter="url(#f122c0qkp3hfhw)" height="94.1426" id="Timer" style="stroke: #383838; stroke-width: 1.5;" width="332" x="950" y="318.5"/><ellipse cx="1096.75" cy="334.5" fill="#CDCDCD" rx="11" ry="11" style="stroke: #383838; stroke-width: 1.0;"/><path d="M1094.6094,340.3594 L1092.0156,340.3594 L1095.3438,327.4219 L1097.6719,327.4219 L1100.9844,340.3594 L1098.3906,340.3594 L1097.4688,336.5781 L1095.5469,336.5781 L1094.6094,340.3594 Z M1096.0625,330.9375 L1096.0625,330.9375 L1095.875,335.3125 L1097.125,335.3125 L1096.0625,330.9375 Z "/><text fill="#000000" font-family="Ricty Diminished" font-size="12" font-style="italic" lengthAdjust="spacingAndGlyphs" textLength="30" x="1117.25" y="338.218">Timer</text><line style="stroke: #383838; stroke-width: 1.5;" x1="951" x2="1281" y1="350.5" y2="350.5"/><line style="stroke: #383838; stroke-width: 1.5;" x1="951" x2="1281" y1="358.5" y2="358.5"/><polygon fill="#EAEAEA" points="961,364.5,965,368.5,961,372.5,957,368.5" style="stroke: #8C8C8C; stroke-width: 1.0;"/><text fill="#000000" font-family="Ricty Diminished" font-size="11" lengthAdjust="spacingAndGlyphs" textLength="306" x="970" y="371.6736">CreateTimer(Timer, int, int, void (*)(void*)): bool</text><ellipse cx="961" cy="381.0356" fill="#A6A6A6" rx="3" ry="3" style="stroke: #545454; stroke-width: 1.0;"/><text fill="#000000" font-family="Ricty Diminished" font-size="11" lengthAdjust="spacingAndGlyphs" textLength="84" x="970" y="383.2092">Delete(Timer*)</text><ellipse cx="961" cy="392.5713" fill="#A6A6A6" rx="3" ry="3" style="stroke: #545454; stroke-width: 1.0;"/><text fill="#000000" font-family="Ricty Diminished" font-size="11" lengthAdjust="spacingAndGlyphs" textLength="72" x="970" y="394.7449">Pause(Timer)</text><ellipse cx="961" cy="404.1069" fill="#A6A6A6" rx="3" ry="3" style="stroke: #545454; stroke-width: 1.0;"/><text fill="#000000" font-family="Ricty Diminished" font-size="11" lengthAdjust="spacingAndGlyphs" textLength="78" x="970" y="406.2805">Resume(Timer)</text><!--class IntervalTimer--><rect fill="#F8F8F8" filter="url(#f122c0qkp3hfhw)" height="59.5356" id="IntervalTimer" style="stroke: #383838; stroke-width: 1.5;" width="206" x="950" y="484"/><ellipse cx="1009.75" cy="500" fill="#C2C2C2" rx="11" ry="11" style="stroke: #383838; stroke-width: 1.0;"/><path d="M1012.4531,505.4375 Q1011.5313,506.3594 1009.2656,506.3594 Q1008,506.3594 1007.0781,505.4375 Q1005.4219,503.7813 1005.4219,500.25 Q1005.4219,496.1406 1007.2031,494.3438 Q1008.1406,493.4219 1009.3281,493.4219 Q1011.5938,493.4219 1012.3281,494.1406 Q1013.7188,495.5469 1013.6563,497.9375 L1011.1875,497.9375 Q1011.125,495.8125 1010.3906,495.0781 Q1010,494.6719 1009.3281,494.6719 Q1009.3281,494.6719 1009.2656,495.1406 Q1007.9375,496.4688 1007.9375,500.125 Q1007.9375,503.3125 1009.0781,504.4375 Q1009.6094,504.9688 1009.6094,504.9688 Q1009.8594,504.9688 1010.3906,504.4375 Q1011.0625,503.7813 1011.125,501.3906 L1013.7188,501.3906 Q1013.5156,504.375 1012.4531,505.4375 Z "/><text fill="#000000" font-family="Ricty Diminished" font-size="12" lengthAdjust="spacingAndGlyphs" textLength="78" x="1030.25" y="503.718">IntervalTimer</text><line style="stroke: #383838; stroke-width: 1.5;" x1="951" x2="1155" y1="516" y2="516"/><line style="stroke: #383838; stroke-width: 1.5;" x1="951" x2="1155" y1="524" y2="524"/><ellipse cx="961" cy="535" fill="#A6A6A6" rx="3" ry="3" style="stroke: #545454; stroke-width: 1.0;"/><text fill="#000000" font-family="Ricty Diminished" font-size="11" lengthAdjust="spacingAndGlyphs" textLength="180" x="970" y="537.1736">New(TimerDelegate, int): Timer</text><!--class OneShotTimer--><rect fill="#F8F8F8" filter="url(#f122c0qkp3hfhw)" height="59.5356" id="OneShotTimer" style="stroke: #383838; stroke-width: 1.5;" width="206" x="1191" y="484"/><ellipse cx="1253.75" cy="500" fill="#C2C2C2" rx="11" ry="11" style="stroke: #383838; stroke-width: 1.0;"/><path d="M1256.4531,505.4375 Q1255.5313,506.3594 1253.2656,506.3594 Q1252,506.3594 1251.0781,505.4375 Q1249.4219,503.7813 1249.4219,500.25 Q1249.4219,496.1406 1251.2031,494.3438 Q1252.1406,493.4219 1253.3281,493.4219 Q1255.5938,493.4219 1256.3281,494.1406 Q1257.7188,495.5469 1257.6563,497.9375 L1255.1875,497.9375 Q1255.125,495.8125 1254.3906,495.0781 Q1254,494.6719 1253.3281,494.6719 Q1253.3281,494.6719 1253.2656,495.1406 Q1251.9375,496.4688 1251.9375,500.125 Q1251.9375,503.3125 1253.0781,504.4375 Q1253.6094,504.9688 1253.6094,504.9688 Q1253.8594,504.9688 1254.3906,504.4375 Q1255.0625,503.7813 1255.125,501.3906 L1257.7188,501.3906 Q1257.5156,504.375 1256.4531,505.4375 Z "/><text fill="#000000" font-family="Ricty Diminished" font-size="12" lengthAdjust="spacingAndGlyphs" textLength="72" x="1274.25" y="503.718">OneShotTimer</text><line style="stroke: #383838; stroke-width: 1.5;" x1="1192" x2="1396" y1="516" y2="516"/><line style="stroke: #383838; stroke-width: 1.5;" x1="1192" x2="1396" y1="524" y2="524"/><ellipse cx="1202" cy="535" fill="#A6A6A6" rx="3" ry="3" style="stroke: #545454; stroke-width: 1.0;"/><text fill="#000000" font-family="Ricty Diminished" font-size="11" lengthAdjust="spacingAndGlyphs" textLength="180" x="1211" y="537.1736">New(TimerDelegate, int): Timer</text><!--class Inbox--><rect fill="#F8F8F8" filter="url(#f122c0qkp3hfhw)" height="117.2139" id="Inbox" style="stroke: #383838; stroke-width: 1.5;" width="284" x="610" y="307"/><ellipse cx="732.75" cy="323" fill="#C2C2C2" rx="11" ry="11" style="stroke: #383838; stroke-width: 1.0;"/><path d="M735.4531,328.4375 Q734.5313,329.3594 732.2656,329.3594 Q731,329.3594 730.0781,328.4375 Q728.4219,326.7813 728.4219,323.25 Q728.4219,319.1406 730.2031,317.3438 Q731.1406,316.4219 732.3281,316.4219 Q734.5938,316.4219 735.3281,317.1406 Q736.7188,318.5469 736.6563,320.9375 L734.1875,320.9375 Q734.125,318.8125 733.3906,318.0781 Q733,317.6719 732.3281,317.6719 Q732.3281,317.6719 732.2656,318.1406 Q730.9375,319.4688 730.9375,323.125 Q730.9375,326.3125 732.0781,327.4375 Q732.6094,327.9688 732.6094,327.9688 Q732.8594,327.9688 733.3906,327.4375 Q734.0625,326.7813 734.125,324.3906 L736.7188,324.3906 Q736.5156,327.375 735.4531,328.4375 Z "/><text fill="#000000" font-family="Ricty Diminished" font-size="12" lengthAdjust="spacingAndGlyphs" textLength="30" x="753.25" y="326.718">Inbox</text><line style="stroke: #383838; stroke-width: 1.5;" x1="611" x2="893" y1="339" y2="339"/><line style="stroke: #383838; stroke-width: 1.5;" x1="611" x2="893" y1="347" y2="347"/><ellipse cx="621" cy="358" fill="#A6A6A6" rx="3" ry="3" style="stroke: #545454; stroke-width: 1.0;"/><text fill="#000000" font-family="Ricty Diminished" font-size="11" lengthAdjust="spacingAndGlyphs" textLength="90" x="630" y="360.1736">New(int): Inbox</text><ellipse cx="621" cy="369.5356" fill="#A6A6A6" rx="3" ry="3" style="stroke: #545454; stroke-width: 1.0;"/><text fill="#000000" font-family="Ricty Diminished" font-size="11" lengthAdjust="spacingAndGlyphs" textLength="84" x="630" y="371.7092">Delete(Inbox*)</text><ellipse cx="621" cy="381.0713" fill="#A6A6A6" rx="3" ry="3" style="stroke: #545454; stroke-width: 1.0;"/><text fill="#000000" font-family="Ricty Diminished" font-size="11" lengthAdjust="spacingAndGlyphs" textLength="210" x="630" y="383.2449">Post(Inbox, const void*, int): bool</text><ellipse cx="621" cy="392.6069" fill="#A6A6A6" rx="3" ry="3" style="stroke: #545454; stroke-width: 1.0;"/><text fill="#000000" font-family="Ricty Diminished" font-size="11" lengthAdjust="spacingAndGlyphs" textLength="258" x="630" y="394.7805">BlockingPost(Inbox, const void*, int): bool</text><ellipse cx="621" cy="404.1426" fill="#A6A6A6" rx="3" ry="3" style="stroke: #545454; stroke-width: 1.0;"/><text fill="#000000" font-family="Ricty Diminished" font-size="11" lengthAdjust="spacingAndGlyphs" textLength="102" x="630" y="406.3162">Get(Inbox): void*</text><ellipse cx="621" cy="415.6782" fill="#A6A6A6" rx="3" ry="3" style="stroke: #545454; stroke-width: 1.0;"/><text fill="#000000" font-family="Ricty Diminished" font-size="11" lengthAdjust="spacingAndGlyphs" textLength="150" x="630" y="417.8518">BlockingGet(Inbox): void*</text><!--class MemoryPool--><rect fill="#F8F8F8" filter="url(#f122c0qkp3hfhw)" height="94.1426" id="MemoryPool" style="stroke: #383838; stroke-width: 1.5;" width="218" x="336" y="318.5"/><ellipse cx="410.75" cy="334.5" fill="#C2C2C2" rx="11" ry="11" style="stroke: #383838; stroke-width: 1.0;"/><path d="M413.4531,339.9375 Q412.5313,340.8594 410.2656,340.8594 Q409,340.8594 408.0781,339.9375 Q406.4219,338.2813 406.4219,334.75 Q406.4219,330.6406 408.2031,328.8438 Q409.1406,327.9219 410.3281,327.9219 Q412.5938,327.9219 413.3281,328.6406 Q414.7188,330.0469 414.6563,332.4375 L412.1875,332.4375 Q412.125,330.3125 411.3906,329.5781 Q411,329.1719 410.3281,329.1719 Q410.3281,329.1719 410.2656,329.6406 Q408.9375,330.9688 408.9375,334.625 Q408.9375,337.8125 410.0781,338.9375 Q410.6094,339.4688 410.6094,339.4688 Q410.8594,339.4688 411.3906,338.9375 Q412.0625,338.2813 412.125,335.8906 L414.7188,335.8906 Q414.5156,338.875 413.4531,339.9375 Z "/><text fill="#000000" font-family="Ricty Diminished" font-size="12" lengthAdjust="spacingAndGlyphs" textLength="60" x="431.25" y="338.218">MemoryPool</text><line style="stroke: #383838; stroke-width: 1.5;" x1="337" x2="553" y1="350.5" y2="350.5"/><line style="stroke: #383838; stroke-width: 1.5;" x1="337" x2="553" y1="358.5" y2="358.5"/><ellipse cx="347" cy="369.5" fill="#A6A6A6" rx="3" ry="3" style="stroke: #545454; stroke-width: 1.0;"/><text fill="#000000" font-family="Ricty Diminished" font-size="11" lengthAdjust="spacingAndGlyphs" textLength="192" x="356" y="371.6736">New(void*, int, int): MemoryPool</text><ellipse cx="347" cy="381.0356" fill="#A6A6A6" rx="3" ry="3" style="stroke: #545454; stroke-width: 1.0;"/><text fill="#000000" font-family="Ricty Diminished" font-size="11" lengthAdjust="spacingAndGlyphs" textLength="114" x="356" y="383.2092">Delete(MemoryPool*)</text><ellipse cx="347" cy="392.5713" fill="#A6A6A6" rx="3" ry="3" style="stroke: #545454; stroke-width: 1.0;"/><text fill="#000000" font-family="Ricty Diminished" font-size="11" lengthAdjust="spacingAndGlyphs" textLength="132" x="356" y="394.7449">Get(MemoryPool): void*</text><ellipse cx="347" cy="404.1069" fill="#A6A6A6" rx="3" ry="3" style="stroke: #545454; stroke-width: 1.0;"/><text fill="#000000" font-family="Ricty Diminished" font-size="11" lengthAdjust="spacingAndGlyphs" textLength="156" x="356" y="406.2805">Release(MemoryPool, void*)</text><!--class Isr--><rect fill="#F8F8F8" filter="url(#f122c0qkp3hfhw)" height="94.1426" id="Isr" style="stroke: #383838; stroke-width: 1.5;" width="218" x="62" y="318.5"/><ellipse cx="157.75" cy="334.5" fill="#C2C2C2" rx="11" ry="11" style="stroke: #383838; stroke-width: 1.0;"/><path d="M160.4531,339.9375 Q159.5313,340.8594 157.2656,340.8594 Q156,340.8594 155.0781,339.9375 Q153.4219,338.2813 153.4219,334.75 Q153.4219,330.6406 155.2031,328.8438 Q156.1406,327.9219 157.3281,327.9219 Q159.5938,327.9219 160.3281,328.6406 Q161.7188,330.0469 161.6563,332.4375 L159.1875,332.4375 Q159.125,330.3125 158.3906,329.5781 Q158,329.1719 157.3281,329.1719 Q157.3281,329.1719 157.2656,329.6406 Q155.9375,330.9688 155.9375,334.625 Q155.9375,337.8125 157.0781,338.9375 Q157.6094,339.4688 157.6094,339.4688 Q157.8594,339.4688 158.3906,338.9375 Q159.0625,338.2813 159.125,335.8906 L161.7188,335.8906 Q161.5156,338.875 160.4531,339.9375 Z "/><text fill="#000000" font-family="Ricty Diminished" font-size="12" lengthAdjust="spacingAndGlyphs" textLength="18" x="178.25" y="338.218">Isr</text><line style="stroke: #383838; stroke-width: 1.5;" x1="63" x2="279" y1="350.5" y2="350.5"/><line style="stroke: #383838; stroke-width: 1.5;" x1="63" x2="279" y1="358.5" y2="358.5"/><ellipse cx="73" cy="369.5" fill="#A6A6A6" rx="3" ry="3" style="stroke: #545454; stroke-width: 1.0;"/><text fill="#000000" font-family="Ricty Diminished" font-size="11" lengthAdjust="spacingAndGlyphs" textLength="192" x="82" y="371.6736">New(int, InterruptDelegate): Isr</text><ellipse cx="73" cy="381.0356" fill="#A6A6A6" rx="3" ry="3" style="stroke: #545454; stroke-width: 1.0;"/><text fill="#000000" font-family="Ricty Diminished" font-size="11" lengthAdjust="spacingAndGlyphs" textLength="72" x="82" y="383.2092">Delete(Isr*)</text><ellipse cx="73" cy="392.5713" fill="#A6A6A6" rx="3" ry="3" style="stroke: #545454; stroke-width: 1.0;"/><text fill="#000000" font-family="Ricty Diminished" font-size="11" lengthAdjust="spacingAndGlyphs" textLength="96" x="82" y="394.7449">Enable(Isr, int)</text><ellipse cx="73" cy="404.1069" fill="#A6A6A6" rx="3" ry="3" style="stroke: #545454; stroke-width: 1.0;"/><text fill="#000000" font-family="Ricty Diminished" font-size="11" lengthAdjust="spacingAndGlyphs" textLength="72" x="82" y="406.2805">Disable(Isr)</text><!--reverse link Heap to Task--><path d="M815.254,138.487 C959.216,148.306 1307.05,176.45 1413,225 C1454.42,243.978 1492.92,277.491 1521.54,306.913 " fill="none" id="Heap&lt;-Task" style="stroke: #383838; stroke-width: 1.0;"/><polygon fill="#383838" points="810.219,138.145,818.9275,142.7452,815.2075,138.4836,819.4692,134.7636,810.219,138.145" style="stroke: #383838; stroke-width: 1.0;"/><!--reverse link Heap to Timer--><path d="M814.671,168.969 C843.938,185.427 879.067,205.705 910,225 C957.825,254.832 1010.42,290.499 1050.5,318.301 " fill="none" id="Heap&lt;-Timer" style="stroke: #383838; stroke-width: 1.0;"/><polygon fill="#383838" points="810.026,166.361,815.9134,174.2564,814.3852,168.8099,819.8317,167.2817,810.026,166.361" style="stroke: #383838; stroke-width: 1.0;"/><!--reverse link Timer to IntervalTimer--><path d="M1088.16,431.233 C1080.24,449.667 1071.99,468.831 1065.48,483.969 " fill="none" id="Timer&lt;-IntervalTimer" style="stroke: #383838; stroke-width: 1.0;"/><polygon fill="none" points="1081.73,428.461,1096.07,412.854,1094.6,433.992,1081.73,428.461" style="stroke: #383838; stroke-width: 1.0;"/><!--reverse link Timer to OneShotTimer--><path d="M1188,425.758 C1212.37,445.815 1238.5,467.325 1258.73,483.969 " fill="none" id="Timer&lt;-OneShotTimer" style="stroke: #383838; stroke-width: 1.0;"/><polygon fill="none" points="1183.31,430.968,1172.32,412.854,1192.21,420.158,1183.31,430.968" style="stroke: #383838; stroke-width: 1.0;"/><!--reverse link Heap to Inbox--><path d="M752,174.694 C752,211.257 752,265.642 752,306.837 " fill="none" id="Heap&lt;-Inbox" style="stroke: #383838; stroke-width: 1.0;"/><polygon fill="#383838" points="752,169.432,748,178.432,752,174.432,756,178.432,752,169.432" style="stroke: #383838; stroke-width: 1.0;"/><!--reverse link Heap to MemoryPool--><path d="M688.963,166.232 C659.156,182.317 623.684,203.068 594,225 C556.094,253.007 517.358,289.565 488.885,318.231 " fill="none" id="Heap&lt;-MemoryPool" style="stroke: #383838; stroke-width: 1.0;"/><polygon fill="#383838" points="693.696,163.691,683.8744,164.4235,689.2906,166.0559,687.6582,171.4721,693.696,163.691" style="stroke: #383838; stroke-width: 1.0;"/><!--reverse link Heap to Isr--><path d="M688.677,137.138 C601.183,143.071 440.486,162.351 320,225 C276.142,247.805 235.838,287.179 208.238,318.293 " fill="none" id="Heap&lt;-Isr" style="stroke: #383838; stroke-width: 1.0;"/><polygon fill="#383838" points="693.818,136.799,684.5746,133.3992,688.8288,137.1276,685.1003,141.3819,693.818,136.799" style="stroke: #383838; stroke-width: 1.0;"/><!--
@startuml class_diagram
skinparam {
    defaultFontName Ricty Diminished
    monochrome true
}

package Bleu {
    folder heap {
        class Heap {
            + {static} New(int): void*
            + {static} Delete(void**)
        }
    }
}
package Malkt {
    folder uptime {
        class Uptime {
            + Get(): uint64_t
        }
    }
    folder task {
        class Task {
            + New(ActionDelegate, int, int): Task
            + Delete(Task*)
            + Run(Task)
            + Suspend(Task)
            + Resume(Task)
            + Delay(int)
        }
    }
    folder timer {
        abstract Timer {
            # CreateTimer(Timer, int, int, void (*)(void*)): bool
            + Delete(Timer*)
            + Pause(Timer)
            + Resume(Timer)
        }
        class IntervalTimer {
            + New(TimerDelegate, int): Timer
        }
        class OneShotTimer {
            + New(TimerDelegate, int): Timer
        }
    }
    folder inbox {
        class Inbox {
            + New(int): Inbox
            + Delete(Inbox*)
            + Post(Inbox, const void*, int): bool
            + BlockingPost(Inbox, const void*, int): bool
            + Get(Inbox): void*
            + BlockingGet(Inbox): void*
        }
    }
    folder memory_pool {
        class MemoryPool {
            + New(void*, int, int): MemoryPool
            + Delete(MemoryPool*)
            + Get(MemoryPool): void*
            + Release(MemoryPool, void*)
        }
    }
    folder isr {
        class Isr {
            + New(int, InterruptDelegate): Isr
            + Delete(Isr*)
            + Enable(Isr, int)
            + Disable(Isr)
        }
    }
}
Heap <- - Task
Heap <- - Timer
Timer <|- - IntervalTimer
Timer <|- - OneShotTimer
Heap <- - Inbox
Heap <- - MemoryPool
Heap <- - Isr
@enduml

PlantUML version 1.2019.09(Tue Aug 27 01:19:51 JST 2019)
(GPL source distribution)
Java Runtime: Java(TM) SE Runtime Environment
JVM: Java HotSpot(TM) 64-Bit Server VM
Java Version: 1.8.0_221-b11
Operating System: Windows 10
OS Version: 10.0
Default Encoding: MS932
Language: en
Country: GB
--></g></svg>