<?xml version="1.0" encoding="UTF-8" standalone="no"?><svg xmlns="http://www.w3.org/2000/svg" xmlns:xlink="http://www.w3.org/1999/xlink" contentScriptType="application/ecmascript" contentStyleType="text/css" height="498px" preserveAspectRatio="none" style="width:376px;height:498px;" version="1.1" viewBox="0 0 376 498" width="376px" zoomAndPan="magnify"><defs><filter height="300%" id="f1s5zhvuvu7zyo" width="300%" x="-1" y="-1"><feGaussianBlur result="blurOut" stdDeviation="2.0"/><feColorMatrix in="blurOut" result="blurOut2" type="matrix" values="0 0 0 0 0 0 0 0 0 0 0 0 0 0 0 0 0 0 .4 0"/><feOffset dx="4.0" dy="4.0" in="blurOut2" result="blurOut3"/><feBlend in="SourceGraphic" in2="blurOut3" mode="normal"/></filter></defs><g><ellipse cx="185" cy="18" fill="#000000" filter="url(#f1s5zhvuvu7zyo)" rx="10" ry="10" style="stroke: none; stroke-width: 1.0;"/><ellipse cx="185" cy="477" fill="none" filter="url(#f1s5zhvuvu7zyo)" rx="10" ry="10" style="stroke: #000000; stroke-width: 1.0;"/><ellipse cx="185.5" cy="477.5" fill="#000000" rx="6" ry="6" style="stroke: none; stroke-width: 1.0;"/><rect fill="#F8F8F8" filter="url(#f1s5zhvuvu7zyo)" height="288.6919" rx="12.5" ry="12.5" style="stroke: #383838; stroke-width: 1.5;" width="358" x="6" y="103"/><rect fill="#FFFFFF" height="258" rx="12.5" ry="12.5" style="stroke: #FFFFFF; stroke-width: 1.0;" width="352" x="9" y="130.6919"/><line style="stroke: #383838; stroke-width: 1.5;" x1="6" x2="364" y1="127.6919" y2="127.6919"/><text fill="#000000" font-family="Ricty Diminished" font-size="14" lengthAdjust="spacingAndGlyphs" textLength="28" x="171" y="119.6836">Task</text><rect fill="#F8F8F8" filter="url(#f1s5zhvuvu7zyo)" height="40" rx="12.5" ry="12.5" style="stroke: #383838; stroke-width: 1.5;" width="50" x="135.637" y="245.6919"/><text fill="#000000" font-family="Ricty Diminished" font-size="14" lengthAdjust="spacingAndGlyphs" textLength="35" x="143.137" y="270.0295">Ready</text><rect fill="#F8F8F8" filter="url(#f1s5zhvuvu7zyo)" height="40" rx="12.5" ry="12.5" style="stroke: #383838; stroke-width: 1.5;" width="59" x="18.1371" y="336.6919"/><text fill="#000000" font-family="Ricty Diminished" font-size="14" lengthAdjust="spacingAndGlyphs" textLength="49" x="23.1371" y="361.0295">Running</text><rect fill="#F8F8F8" filter="url(#f1s5zhvuvu7zyo)" height="40" rx="12.5" ry="12.5" style="stroke: #383838; stroke-width: 1.5;" width="59" x="230.137" y="336.6919"/><text fill="#000000" font-family="Ricty Diminished" font-size="14" lengthAdjust="spacingAndGlyphs" textLength="49" x="235.137" y="361.0295">Blocked</text><rect fill="#F8F8F8" filter="url(#f1s5zhvuvu7zyo)" height="40" rx="12.5" ry="12.5" style="stroke: #383838; stroke-width: 1.5;" width="73" x="104.1371" y="140.6919"/><text fill="#000000" font-family="Ricty Diminished" font-size="14" lengthAdjust="spacingAndGlyphs" textLength="63" x="109.1371" y="165.0295">Suspended</text><ellipse cx="107.6371" cy="265.6919" fill="#000000" filter="url(#f1s5zhvuvu7zyo)" rx="10" ry="10" style="stroke: none; stroke-width: 1.0;"/><!--link *start*Task to Ready--><path d="M117.989,265.6919 C122.049,265.6919 126.11,265.6919 130.171,265.6919 " fill="none" id="*start*Task-&gt;Ready" style="stroke: #383838; stroke-width: 1.0;"/><polygon fill="#383838" points="135.315,265.6919,126.315,261.6919,130.315,265.6919,126.315,269.6919,135.315,265.6919" style="stroke: #383838; stroke-width: 1.0;"/><!--link Suspended to Ready--><path d="M111.3854,180.7549 C105.816,185.8639 100.7582,191.8889 97.6371,198.6919 C92.2626,210.4069 91.2342,216.5059 97.6371,227.6919 C98.6667,229.4909 115.0691,239.0989 130.878,248.0719 " fill="none" id="Suspended-&gt;Ready" style="stroke: #383838; stroke-width: 1.0;"/><polygon fill="#383838" points="135.307,250.5789,129.4448,242.6647,130.9556,248.1161,125.5043,249.6269,135.307,250.5789" style="stroke: #383838; stroke-width: 1.0;"/><text fill="#000000" font-family="Ricty Diminished" font-size="13" lengthAdjust="spacingAndGlyphs" textLength="56" x="98.6371" y="210.5346">Resume()</text><text fill="#000000" font-family="Ricty Diminished" font-size="13" lengthAdjust="spacingAndGlyphs" textLength="42" x="109.1371" y="224.1691">called</text><!--link Ready to Suspended--><path d="M162.62,245.6189 C163.46,232.2759 163.497,214.1459 159.637,198.6919 C158.532,194.2669 156.816,189.7739 154.857,185.5149 " fill="none" id="Ready-&gt;Suspended" style="stroke: #383838; stroke-width: 1.0;"/><polygon fill="#383838" points="152.654,180.9999,153.0069,190.8425,154.8471,185.4933,160.1963,187.3335,152.654,180.9999" style="stroke: #383838; stroke-width: 1.0;"/><text fill="#000000" font-family="Ricty Diminished" font-size="13" lengthAdjust="spacingAndGlyphs" textLength="63" x="164.637" y="210.5346">Suspend()</text><text fill="#000000" font-family="Ricty Diminished" font-size="13" lengthAdjust="spacingAndGlyphs" textLength="42" x="178.637" y="224.1691">called</text><!--reverse link Ready to Blocked--><path d="M190.316,288.5408 C196.499,293.376 202.883,298.5845 208.637,303.6919 C220.175,313.9325 232.298,326.2223 241.829,336.2825 " fill="none" id="Ready&lt;-Blocked" style="stroke: #383838; stroke-width: 1.0;"/><polygon fill="#383838" points="186.077,285.2589,190.744,293.9318,190.0303,288.3202,195.642,287.6065,186.077,285.2589" style="stroke: #383838; stroke-width: 1.0;"/><text fill="#000000" font-family="Ricty Diminished" font-size="13" lengthAdjust="spacingAndGlyphs" textLength="35" x="224.637" y="315.5346">Event</text><!--reverse link Suspended to Blocked--><path d="M182.218,169.9579 C199.905,175.4109 219.449,184.3099 232.637,198.6919 C269.942,239.3739 268.341,263.6189 264.637,318.6919 C264.246,324.5125 263.511,330.8136 262.724,336.5379 " fill="none" id="Suspended&lt;-Blocked" style="stroke: #383838; stroke-width: 1.0;"/><polygon fill="#383838" points="177.285,168.5099,184.7935,174.8835,182.0825,169.9186,187.0474,167.2076,177.285,168.5099" style="stroke: #383838; stroke-width: 1.0;"/><text fill="#000000" font-family="Ricty Diminished" font-size="13" lengthAdjust="spacingAndGlyphs" textLength="63" x="266.637" y="263.0346">Suspend()</text><text fill="#000000" font-family="Ricty Diminished" font-size="13" lengthAdjust="spacingAndGlyphs" textLength="42" x="280.637" y="276.6691">called</text><!--link Ready to Running--><path d="M135.406,281.8433 C132.506,283.2672 129.545,284.5879 126.637,285.6919 C91.7543,298.9351 68.022,274.6169 44.6371,303.6919 C38.4596,311.3725 38.0865,321.9397 39.6949,331.5429 " fill="none" id="Ready-&gt;Running" style="stroke: #383838; stroke-width: 1.0;"/><polygon fill="#383838" points="40.6964,336.4565,42.8184,326.839,39.6978,331.5573,34.9796,328.4367,40.6964,336.4565" style="stroke: #383838; stroke-width: 1.0;"/><text fill="#000000" font-family="Ricty Diminished" font-size="13" lengthAdjust="spacingAndGlyphs" textLength="70" x="45.6371" y="315.5346">Dispatched</text><!--link Running to Ready--><path d="M77.1528,344.3558 C91.2106,338.0884 107.7289,329.3914 120.637,318.6919 C130.371,310.6239 139.184,299.7762 146.044,290.0761 " fill="none" id="Running-&gt;Ready" style="stroke: #383838; stroke-width: 1.0;"/><polygon fill="#383838" points="149.055,285.7142,140.6499,290.8479,146.2142,289.8288,147.2333,295.3931,149.055,285.7142" style="stroke: #383838; stroke-width: 1.0;"/><text fill="#000000" font-family="Ricty Diminished" font-size="13" lengthAdjust="spacingAndGlyphs" textLength="63" x="135.637" y="315.5346">Preempted</text><!--link Running to Blocked--><path d="M77.5619,356.6919 C116.3091,356.6919 183.72,356.6919 224.749,356.6919 " fill="none" id="Running-&gt;Blocked" style="stroke: #383838; stroke-width: 1.0;"/><polygon fill="#383838" points="229.865,356.6919,220.865,352.6919,224.865,356.6919,220.865,360.6919,229.865,356.6919" style="stroke: #383838; stroke-width: 1.0;"/><text fill="#000000" font-family="Ricty Diminished" font-size="13" lengthAdjust="spacingAndGlyphs" textLength="133" x="87.1371" y="350.5346">Blocking API called</text><!--link Running to Suspended--><path d="M35.9806,336.3972 C23.8468,313.607 8.5572,275.0829 23.6371,245.6919 C39.4457,214.8809 72.3902,192.8229 99.3043,179.0649 " fill="none" id="Running-&gt;Suspended" style="stroke: #383838; stroke-width: 1.0;"/><polygon fill="#383838" points="103.9103,176.7609,94.0717,177.2109,99.4388,178.9983,97.6514,184.3653,103.9103,176.7609" style="stroke: #383838; stroke-width: 1.0;"/><text fill="#000000" font-family="Ricty Diminished" font-size="13" lengthAdjust="spacingAndGlyphs" textLength="63" x="24.6371" y="263.0346">Suspend()</text><text fill="#000000" font-family="Ricty Diminished" font-size="13" lengthAdjust="spacingAndGlyphs" textLength="42" x="38.6371" y="276.6691">called</text><!--link *start to Task--><path d="M185,28.2 C185,41.48 185,67.727 185,97.555 " fill="none" id="*start-&gt;Task" style="stroke: #383838; stroke-width: 1.0;"/><polygon fill="#383838" points="185,102.766,189,93.766,185,97.766,181,93.766,185,102.766" style="stroke: #383838; stroke-width: 1.0;"/><text fill="#000000" font-family="Ricty Diminished" font-size="13" lengthAdjust="spacingAndGlyphs" textLength="21" x="186" y="69.8427">New</text><!--link Task to *end--><path d="M185,392.2566 C185,420.6175 185,446.2982 185,461.5337 " fill="none" id="Task-&gt;*end" style="stroke: #383838; stroke-width: 1.0;"/><polygon fill="#383838" points="185,466.6598,189,457.6598,185,461.6598,181,457.6598,185,466.6598" style="stroke: #383838; stroke-width: 1.0;"/><text fill="#000000" font-family="Ricty Diminished" font-size="13" lengthAdjust="spacingAndGlyphs" textLength="42" x="186" y="433.8427">Delete</text><!--
@startuml state_machine_diagram
skinparam {
    defaultFontName Ricty Diminished
    monochrome true
}
hide empty description

state Task {
    state Ready
    state Running
    state Blocked
    state Suspended

    [*] -> Ready
    Suspended - -> Ready : Resume()\n called
    Ready -> Suspended : Suspend()\n called
    Blocked -up-> Ready : Event
    Blocked -up-> Suspended : Suspend()\n called
    Ready - -> Running : Dispatched
    Running -> Ready : Preempted
    Running -> Blocked : Blocking API called
    Running -> Suspended : Suspend()\n called
}

[*] - -> Task : New
Task - -> [*] : Delete

@enduml

PlantUML version 1.2019.09(Tue Aug 27 01:19:51 JST 2019)
(GPL source distribution)
Java Runtime: Java(TM) SE Runtime Environment
JVM: Java HotSpot(TM) 64-Bit Server VM
Java Version: 1.8.0_221-b11
Operating System: Windows 10
OS Version: 10.0
Default Encoding: MS932
Language: en
Country: GB
--></g></svg>